<svg xmlns="http://www.w3.org/2000/svg" xmlns:xlink="http://www.w3.org/1999/xlink" version="1.1" id="Layer_1" x="0px" y="0px" width="731.146px" height="157.708px" viewBox="0 0 731.146 157.708" enable-background="new 0 0 731.146 157.708" xml:space="preserve">
<rect x="206.632" fill="#F5B112" width="27.552" height="157.708"/>
<rect x="192.771" fill="#12173F" width="5.953" height="157.708"/>
<path fill="#12173F" d="M142.811,43.64c-0.599-0.905-1.2-1.769-1.808-2.619c15.099-24.748-20.524-43.721-33.422-22.716  c-15.877-2.925-29.157,2.882-30.938,3.715c-1.779-0.827-14.891-6.56-30.622-3.773C30.448-3.669-1.688,18.983,12.481,40.735  c-0.678,0.934-1.349,1.897-2.01,2.905C-9.673,74.288,5.445,95.058,5.445,95.058l3.102-3.096c0,0,4.399,21.371,27.66,35.411  l0.833-4.609c14.321,15.292,27.589,14.944,39.931,28.914c11.433-13.234,28.02-13.234,40.943-29.755v5.864  c23.888-11.626,26.089-36.767,26.089-36.767l2.195,4.083C146.197,95.104,162.95,74.288,142.811,43.64"/>
<path fill="#BECFDB" d="M76.925,122.074c0,0-11.165,0.172-12.818,1.203c0,0-1.916,3.321,12.818,3.256  c14.021-0.06,11.951-2.614,12.054-2.993C88.979,123.54,84.234,122.074,76.925,122.074"/>
<path fill="#5D76A9" d="M113.537,28.451c0,0,4.772-11.931,19.398-9.05c0,0-13.428-8.833-22.771,7.136c0,0-13.254-6.287-33.236,2.352  c0,0-18.928-6.6-33.2-2.861c0,0-8.325-14.444-20.048-8.496c-11.72,5.947-5.608,19.706-3.564,23.277c0,0-19.426,19.788-12.122,44.26  l3.906-4.877c0,0,5.582,26.646,19.979,35.046l0.864-6.552c0,0,15.027,18.138,32.704,25.838c1.682,0.79,11.05,5.442,11.341,7.735  v-12.688c0,0-12.268,1.023-15.498-4.638c-2.201-3.847-16.296-28.998-9.331-55.333c0,0-6.786-1.016-8.06-12.457  c0,0-5.058-2.462-11.344-1.95c0,0,11.241-3.529,21.776,0.552c10.534,4.075,13.354,14.456,20.495,9.87l2.102-29.25l2.01,29.25  c7.136,4.585,9.961-5.795,20.493-9.87c10.532-4.081,21.778-0.552,21.778-0.552s-4.496-3.17-11.726-4.616  c-6.029-1.206-14.896,2.668-14.896,2.668s1.223-8.298,5.249-12.719C103.293,36.719,111.119,35.881,113.537,28.451"/>
<path fill="#BECFDB" d="M76.525,71.723c0,0-5.422,1.195-12.418-4.694c-4.065-3.431-11.866-9.003-15.087-8.343  c0,0,1.665,12.354,11.957,10.124c-2.771,6.942-8.53,26.403,1.856,52.119c0,0,7.541-1.802,9.878-1.87l4.077-0.217v-6.001  c0-0.482-3.361-4.981-5.947-7.19c-1.853-1.594-3.598,3.452-3.598,3.452c-10.885-13.793,9.36-12.211,9.36-12.211  C76.603,94.134,76.525,71.723,76.525,71.723"/>
<path fill="#7E9BC0" d="M86.384,109.102c12.998-13.186-8.211-12.413-9.557-12.208C79.006,97.014,95.444,97.108,86.384,109.102"/>
<path fill="#5D76A9" d="M105.337,58.686c-6.264,0.602-11.72,5.34-13.702,7.142c-2.016,1.827-5.121,3.75-5.121,3.75  s2.483,0.12,4.55-0.087c4.028,7.444,9.947,27.495,0.738,51.597c0,0,14.945-20.287,3.213-51.877  C104.22,69.067,105.337,58.686,105.337,58.686"/>
<path fill="#F5B112" d="M100.867,59.897c0,0,0.473,6.828-4.553,8.279c-1.063-2.07-2.996-3.256-4.117-2.82  C92.197,65.357,97.144,61.001,100.867,59.897"/>
<path fill="#F5B112" d="M53.421,59.897c0,0-0.473,6.828,4.556,8.279c1.061-2.07,2.994-3.256,4.117-2.82  C62.094,65.357,57.145,61.001,53.421,59.897"/>
<path fill="#0D2240" d="M39.634,27.656c0,0-8.827-11.076-16.137-3.83c0,0,5.907-0.212,8.701,3.203c0,0-7.361-3.142-10.648,3.284  c0,0,3.618-1.857,5.693,0.287c0,0-5.029,3.947-4.607,7.928C22.637,38.528,31.777,29.438,39.634,27.656"/>
<polygon fill="#12173F" points="295.448,56.381 301.005,16.081 314.005,16.081 314.005,73.301 305.421,73.301 305.421,30.387   299.126,73.301 290.627,73.301 284.332,30.223 284.332,73.301 276.812,73.301 276.812,16.081 289.889,16.081 "/>
<polygon fill="#12173F" points="339.94,16.081 339.94,24.009 329.232,24.009 329.232,40.194 339.533,40.194 339.533,48.125   329.232,48.125 329.232,65.371 340.103,65.371 340.103,73.301 320.485,73.301 320.485,16.081 "/>
<polygon fill="#12173F" points="364.749,56.381 370.306,16.081 383.307,16.081 383.307,73.301 374.722,73.301 374.722,30.387   368.427,73.301 359.928,73.301 353.633,30.223 353.633,73.301 346.112,73.301 346.112,16.081 359.19,16.081 "/>
<path fill="#12173F" d="M398.533,73.301h-8.747V16.083h13.733c7.11,0,10.626,3.514,10.626,10.625v15.204  c0,7.112-3.516,10.627-10.626,10.627h-4.986V73.301z M402.128,23.766h-3.595v21.09h3.595c2.207,0,3.273-1.063,3.273-3.352V27.117  C405.401,24.828,404.335,23.766,402.128,23.766"/>
<polygon fill="#12173F" points="437.206,40.196 437.206,16.083 445.953,16.083 445.953,73.303 437.206,73.303 437.206,48.126   428.785,48.126 428.785,73.303 420.038,73.303 420.038,16.083 428.785,16.083 428.785,40.196 "/>
<rect x="452.402" y="16.081" fill="#12173F" width="8.747" height="57.22"/>
<path fill="#12173F" d="M492.324,53.846v9.318c0,7.112-3.516,10.627-10.628,10.627h-3.841c-7.11,0-10.543-3.515-10.543-10.544  V51.149h8.499v11.77c0,2.207,1.063,3.27,3.353,3.27h1.144c2.289,0,3.353-1.063,3.353-3.27v-7.847c0-2.371-0.818-3.433-2.455-4.66  l-8.826-6.457c-3.923-2.778-5.066-5.477-5.066-9.89v-7.847c0-7.112,3.513-10.627,10.626-10.627h3.678  c7.03,0,10.543,3.515,10.543,10.544v10.382h-8.582V26.463c0-2.208-1.063-3.27-3.27-3.27h-1.063c-2.204,0-3.271,1.062-3.271,3.27  v6.376c0,2.369,0.821,3.514,2.455,4.659l8.826,6.458C491.099,46.734,492.324,49.187,492.324,53.846"/>
<path fill="#12173F" d="M523.386,49.596v-7.521h13.074v21.09c0,7.112-3.51,10.627-10.623,10.627h-4.658  c-7.113,0-10.628-3.515-10.628-10.627V26.218c0-7.112,3.515-10.627,10.628-10.627h4.579c7.11,0,10.542,3.515,10.542,10.544v9.237  h-8.581v-8.747c0-2.288-1.063-3.352-3.27-3.352h-1.8c-2.289,0-3.353,1.063-3.353,3.352v36.131c0,2.288,1.063,3.35,3.353,3.35h1.962  c2.289,0,3.353-1.062,3.353-3.35V49.596H523.386z"/>
<path fill="#12173F" d="M567.772,53.846v19.455h-8.75V54.01c0-2.535-1.141-3.678-3.675-3.678h-3.923v22.969h-8.747v-57.22h14.386  c7.11,0,10.626,3.515,10.626,10.627v10.791c0,5.067-1.796,7.519-4.986,8.828C566.301,47.308,567.772,49.514,567.772,53.846   M555.676,23.847h-4.251V42.73h3.923c2.452,0,3.595-1.145,3.595-3.515V27.117C558.942,24.911,557.882,23.847,555.676,23.847"/>
<rect x="574.093" y="16.081" fill="#12173F" width="8.744" height="57.22"/>
<polygon fill="#12173F" points="589.015,23.928 589.015,16.081 609.858,16.081 609.858,24.664 597.188,65.454 609.858,65.454   609.858,73.301 588.606,73.301 588.606,64.718 601.356,23.928 "/>
<polygon fill="#12173F" points="615.522,23.928 615.522,16.081 636.366,16.081 636.366,24.664 623.696,65.454 636.366,65.454   636.366,73.301 615.115,73.301 615.115,64.718 627.864,23.928 "/>
<polygon fill="#12173F" points="650.884,16.081 650.884,65.371 660.528,65.371 660.528,73.301 642.137,73.301 642.137,16.081 "/>
<rect x="666.25" y="16.081" fill="#12173F" width="8.747" height="57.22"/>
<polygon fill="#12173F" points="700.821,16.081 700.821,24.009 690.112,24.009 690.112,40.194 700.41,40.194 700.41,48.125   690.112,48.125 690.112,65.371 700.983,65.371 700.983,73.301 681.366,73.301 681.366,16.081 "/>
<path fill="#12173F" d="M731.146,53.846v9.318c0,7.112-3.516,10.627-10.628,10.627h-3.841c-7.113,0-10.546-3.515-10.546-10.544  V51.149h8.502v11.77c0,2.207,1.063,3.27,3.353,3.27h1.144c2.289,0,3.353-1.063,3.353-3.27v-7.847c0-2.371-0.818-3.433-2.455-4.66  l-8.826-6.457c-3.923-2.778-5.069-5.477-5.069-9.89v-7.847c0-7.112,3.516-10.627,10.629-10.627h3.678  c7.03,0,10.543,3.515,10.543,10.544v10.382h-8.582V26.463c0-2.208-1.063-3.27-3.27-3.27h-1.063c-2.207,0-3.271,1.062-3.271,3.27  v6.376c0,2.369,0.818,3.514,2.455,4.659l8.826,6.458C729.921,46.734,731.146,49.187,731.146,53.846"/>
<polygon fill="#5D76A9" points="295.856,89.647 295.856,97.579 285.558,97.579 285.558,114.091 295.448,114.091 295.448,122.017   285.558,122.017 285.558,146.869 276.812,146.869 276.812,89.647 "/>
<path fill="#5D76A9" d="M316.913,147.362h-4.659c-7.11,0-10.625-3.518-10.625-10.628V99.786c0-7.11,3.516-10.626,10.625-10.626  h4.659c7.113,0,10.628,3.516,10.628,10.626v36.948C327.542,143.844,324.026,147.362,316.913,147.362 M315.524,96.843h-1.799  c-2.286,0-3.353,1.063-3.353,3.353v36.127c0,2.293,1.066,3.354,3.353,3.354h1.799c2.207,0,3.271-1.061,3.271-3.354v-36.127  C318.795,97.907,317.731,96.843,315.524,96.843"/>
<path fill="#5D76A9" d="M359.298,136.734c0,7.11-3.515,10.625-10.625,10.625h-4.254c-7.11,0-10.623-3.515-10.623-10.625V89.647  h8.744v46.676c0,2.29,1.063,3.354,3.353,3.354h1.388c2.207,0,3.271-1.063,3.271-3.354V89.647h8.747V136.734z"/>
<polygon fill="#5D76A9" points="383.99,89.647 391.839,89.647 391.839,146.869 382.356,146.869 373.447,108.287 373.527,146.869   365.682,146.869 365.682,89.647 375.899,89.647 384.073,125.208 "/>
<path fill="#5D76A9" d="M398.279,89.65h13.16c8.502,0,12.505,4.086,12.505,12.508v32.204c0,8.422-4.003,12.507-12.505,12.507h-13.16  V89.65z M407.026,139.186h3.188c3.433,0,4.983-1.637,4.983-5.069v-31.714c0-3.433-1.551-5.069-4.983-5.069h-3.188V139.186z"/>
<path fill="#5D76A9" d="M455.823,146.872h-8.661l-1.146-8.992h-9.071l-1.066,8.992h-8.091l8.174-57.304h11.606L455.823,146.872z   M437.925,130.114h7.11l-3.515-28.612L437.925,130.114z"/>
<polygon fill="#5D76A9" points="463.917,146.869 463.917,97.579 456.068,97.579 456.068,89.647 480.51,89.647 480.51,97.579   472.664,97.579 472.664,146.869 "/>
<rect x="485.416" y="89.647" fill="#5D76A9" width="8.744" height="57.222"/>
<path fill="#5D76A9" d="M515.708,147.362h-4.661c-7.11,0-10.626-3.518-10.626-10.628V99.786c0-7.11,3.516-10.626,10.626-10.626  h4.661c7.11,0,10.625,3.516,10.625,10.626v36.948C526.333,143.844,522.818,147.362,515.708,147.362 M514.316,96.843h-1.799  c-2.286,0-3.35,1.063-3.35,3.353v36.127c0,2.293,1.063,3.354,3.35,3.354h1.799c2.207,0,3.271-1.061,3.271-3.354v-36.127  C517.587,97.907,516.523,96.843,514.316,96.843"/>
<polygon fill="#5D76A9" points="550.963,89.647 558.809,89.647 558.809,146.869 549.326,146.869 540.42,108.287 540.5,146.869   532.654,146.869 532.654,89.647 542.872,89.647 551.046,125.208 "/>
</svg>
