<svg xmlns="http://www.w3.org/2000/svg" width="190" height="70" viewBox="0 0 302.222 113.014" enable-background="new 0 0 302.222 113.014"><path fill="#AA2623" d="M217.113 24.023c.85 7.977 4.77 14.47 9.914 16.826-2.422-4.395-4.18-10.22-4.95-16.828h-4.964zm31.723 16.695c5.006-2.462 8.796-8.86 9.63-16.694h-4.755c-.76 6.542-2.49 12.315-4.873 16.694zM206.57.014v84.643h62.442V.014H206.57zm39.368 44.965c-.604.693-1.228 1.32-1.877 1.857h.336v3.274h-3.252v8.185h3.252v3.274h3.252v6.55h-19.51v-6.55h3.253v-3.276h3.253V50.11h-3.252v-3.274h.336c-.644-.533-1.262-1.154-1.866-1.844-9.05-1.005-16.173-11.466-16.173-24.243h8.098c-.09-1.378-.148-2.77-.148-4.2h32.515c0 1.428-.06 2.82-.148 4.2h7.888c0 12.677-7.007 23.08-15.954 24.23zm26.23 34.965V10.927l16.27 4.543zm16.768-53.825l13.286 7.985-25.416 40.147z"/><path d="M48.867 23.274c.417 0 .888.093 1.41.282.522.187.95.408 1.286.658l5.89 4.387c.334.25.616.607.847 1.066.228.46.344.9.344 1.317v7.958c0 .46-.116.92-.344 1.38-.23.46-.512.814-.847 1.064l-1.316.94c-.334.25-.5.554-.5.91 0 .353.166.636.5.846l1.316 1c.334.252.616.607.847 1.065.228.462.344.9.344 1.316v7.96c0 .42-.116.857-.344 1.316-.23.46-.512.815-.847 1.064l-5.89 4.448c-.336.252-.764.46-1.286.628-.52.168-.993.25-1.41.25H2.433c-.42 0-.774-.145-1.066-.438-.293-.29-.44-.646-.44-1.066v-3.946c0-.418.147-.774.44-1.065.292-.29.647-.436 1.066-.436h5.953c.417 0 .772-.147 1.065-.438.293-.293.44-.648.44-1.065V31.797c0-.416-.147-.77-.44-1.064-.29-.292-.647-.438-1.063-.438H2.433c-.42 0-.774-.146-1.066-.44-.293-.29-.44-.646-.44-1.064v-4.01c0-.418.147-.773.44-1.065.292-.292.647-.44 1.066-.44h46.434zm2.82 11.218c0-.417-.116-.855-.345-1.316-.23-.46-.512-.814-.845-1.065l-1.254-.94c-.334-.25-.762-.457-1.286-.624-.522-.167-.99-.25-1.41-.25h-28.2c-.417 0-.77.146-1.064.438-.294.294-.44.648-.44 1.064v6.896c0 .418.146.773.44 1.064.292.292.646.44 1.065.44H45.92c.418 0 .89-.097 1.41-.284.523-.19.95-.406 1.286-.658l1.88-1.38c.334-.25.616-.603.846-1.063.23-.46.346-.898.346-1.317v-1.003zm0 16.42c0-.42-.116-.857-.345-1.317-.23-.46-.512-.813-.845-1.065l-2.068-1.504c-.337-.252-.754-.46-1.255-.627-.502-.168-.982-.253-1.44-.253H18.348c-.42 0-.773.147-1.066.438-.294.293-.44.648-.44 1.065v7.02c0 .418.146.773.44 1.066.292.29.646.438 1.065.438h28.2c.417 0 .886-.095 1.408-.282.523-.188.95-.386 1.286-.596l1.255-1.002c.333-.21.615-.555.845-1.035.23-.48.346-.93.346-1.348V50.91zm59.973-27.575c.416 0 .877.094 1.376.282.5.186.92.406 1.254.656l4.888 4.45c.334.292.606.68.815 1.157.208.482.313.932.313 1.348v24.003c0 .417-.105.868-.313 1.346-.21.482-.48.87-.815 1.16l-4.888 4.388c-.335.29-.753.53-1.254.718-.5.19-.96.283-1.377.283H74.62c-.418 0-.867-.094-1.347-.283-.48-.187-.888-.428-1.223-.72l-4.887-4.386c-.335-.292-.606-.68-.815-1.16-.208-.48-.31-.93-.31-1.347v-24c0-.417.102-.866.31-1.35.21-.48.48-.864.816-1.156l4.887-4.45c.335-.25.742-.47 1.223-.658.48-.19.928-.284 1.347-.284h37.036zm1.69 10.967c0-.415-.103-.866-.313-1.348-.21-.48-.48-.866-.814-1.16l-.625-.5c-.335-.292-.742-.532-1.222-.722-.48-.188-.93-.28-1.347-.28H77.32c-.418 0-.878.093-1.38.28-.5.19-.898.43-1.19.72l-.627.502c-.333.294-.606.68-.814 1.16-.21.48-.315.933-.315 1.348v17.798c0 .417.104.867.313 1.347.207.48.48.864.813 1.157l.628.564c.292.295.69.534 1.19.72.502.19.962.284 1.38.284h31.71c.416 0 .865-.095 1.346-.282.48-.188.887-.427 1.222-.72l.625-.565c.335-.293.606-.68.815-1.16.21-.478.314-.93.314-1.346V34.305zm55.96-9.524c0-.42.148-.763.44-1.037.29-.27.646-.406 1.065-.406h21.934c.415 0 .77.137 1.063.406.292.274.44.618.44 1.036v4.01c0 .416-.148.77-.44 1.063-.293.293-.65.44-1.065.44h-3.636c-.417 0-.9.072-1.44.217-.544.15-.983.325-1.316.536l-18.3 11.404c-.334.21-.5.47-.5.783 0 .312.166.574.5.782l18.3 11.344c.333.206.772.394 1.315.56.543.167 1.024.25 1.44.25h3.637c.416 0 .77.15 1.064.44.293.29.44.647.44 1.065v3.946c0 .42-.147.776-.44 1.067-.292.293-.65.44-1.064.44H170.81c-.417 0-.773-.147-1.064-.44-.292-.29-.44-.646-.44-1.066v-3.945c0-.418.148-.774.44-1.065.29-.29.646-.437 1.065-.437h3.95c.46 0 .7-.085.72-.25.02-.168-.138-.356-.47-.564l-12.66-7.836c-.334-.208-.753-.313-1.253-.313s-.916.106-1.25.314l-12.66 7.834c-.334.207-.48.395-.44.562.043.166.272.25.69.25h3.95c.415 0 .77.148 1.064.44.29.29.44.646.44 1.064v3.946c0 .42-.15.775-.44 1.066-.292.293-.65.44-1.064.44h-21.872c-.417 0-.773-.147-1.065-.44-.293-.29-.44-.646-.44-1.066v-3.946c0-.418.147-.774.44-1.065s.647-.438 1.064-.438h3.634c.417 0 .898-.085 1.442-.25.542-.168.98-.356 1.315-.564l18.297-11.345c.334-.208.502-.47.502-.782 0-.313-.168-.573-.503-.782l-18.29-11.4c-.335-.21-.773-.388-1.315-.536-.544-.145-1.025-.218-1.442-.218h-3.634c-.42 0-.775-.146-1.067-.44-.292-.29-.44-.646-.44-1.064v-4.01c0-.418.148-.762.44-1.036.292-.27.648-.406 1.065-.406h21.87c.416 0 .772.137 1.065.406.29.274.44.618.44 1.036v4.01c0 .418-.15.773-.44 1.065-.293.293-.65.44-1.065.44h-3.95c-.417 0-.646.072-.688.217-.04.148.104.324.44.535l12.66 7.895c.333.21.75.312 1.25.312s.92-.104 1.254-.312l12.657-7.895c.335-.21.48-.387.44-.535-.042-.145-.27-.218-.69-.218h-3.946c-.418 0-.774-.146-1.065-.44-.29-.29-.44-.646-.44-1.064v-4.01zM3.22 82.27c-1.333-1.332-1.987-3.188-1.987-5.285 0-2.098.654-3.954 1.987-5.286 1.44-1.44 4.302-2.71 9.74-2.71 4.303 0 7.666.96 9.522 1.9v2.25c-2.184-1.223-5.722-2.205-9.5-2.205-3.517 0-6.508.61-7.95 2.053-.938.937-1.42 2.27-1.42 3.995s.482 3.013 1.42 3.974C6.474 82.4 9.466 83.03 12.96 83.03c3.8 0 7.34-.94 9.522-2.095v2.14c-1.856.94-5.22 1.9-9.522 1.9-5.438 0-8.298-1.268-9.74-2.708zm53.25-13.018L67.5 84.628h-2.752l-2.73-3.845H47.56l-2.71 3.845h-2.62l11.03-15.376h3.21zm-7.534 9.59h11.706l-5.833-8.257-5.875 8.256zm50.27-9.502c4.412 0 5.83.568 6.88 1.615.83.832 1.157 1.97 1.157 3.256 0 1.29-.328 2.426-1.202 3.276-.915.92-2.29 1.616-5.872 1.728l8.93 5.35v.065h-3.624l-8.89-5.416h-7.58v5.415h-2.358V69.34h12.56zm-10.2 7.972h10.222c3.057 0 4.303-.415 4.958-1.072.48-.48.7-1.09.7-1.965 0-.852-.22-1.507-.744-2.008-.655-.656-1.792-.96-4.914-.96H89.006v6.005zm60.752 4.87c-1.246 1.244-3.756 2.446-9.085 2.446h-10.658V69.34h10.658c5.33 0 7.84 1.203 9.085 2.447 1.376 1.377 1.988 3.123 1.988 5.197s-.612 3.82-1.988 5.198zm-9.13.48c4.15 0 6.313-.785 7.318-1.79.917-.896 1.42-2.12 1.42-3.888s-.503-2.992-1.42-3.888c-1.004-1.005-3.168-1.79-7.317-1.79h-8.257V82.66h8.255zm50.72-.808c.414-.413.566-.916.566-1.46 0-.528-.11-1.01-.48-1.38-.545-.545-1.637-.873-7.534-1.156-6.093-.305-8.06-.83-9.04-1.812-.613-.59-.853-1.44-.853-2.402 0-1.05.24-2.03 1.004-2.795 1.05-1.05 3.255-1.794 8.5-1.794 4.19 0 7.51.655 9.542 1.4v2.052c-2.38-.92-6.07-1.617-9.542-1.617-4.478 0-5.985.5-6.64 1.157-.35.348-.503.83-.503 1.375 0 .548.153.96.437 1.245.59.59 1.966.916 7.382 1.18 6.574.327 8.21.83 9.194 1.812.635.61.896 1.53.896 2.51 0 1.05-.26 2.054-1.025 2.818-.983 1.005-2.994 1.944-8.933 1.944-4.368 0-8.387-.72-10.812-1.725v-2.054c2.36 1.05 6.924 1.922 10.812 1.922 4.935 0 6.397-.59 7.03-1.224z" fill="#24559C"/><path fill="#AA2623" d="M33.362 73.25l1.37 2.777 3.066.445-2.218 2.163.523 3.053-2.74-1.442-2.744 1.442.523-3.053-2.218-2.163 3.064-.445zm43.008 0l1.37 2.777 3.065.445-2.218 2.163.525 3.053-2.743-1.442-2.744 1.442.524-3.053-2.216-2.163 3.064-.445zm43.007 0l1.37 2.777 3.066.445-2.218 2.163.525 3.053-2.743-1.442-2.74 1.442.523-3.053-2.22-2.163 3.067-.445zm43.008 0l1.372 2.777 3.064.445-2.215 2.163.524 3.053-2.744-1.442-2.74 1.442.523-3.053-2.22-2.163 3.065-.445z"/><path d="M26.587.03c.197 0 .365.063.504.19.14.13.21.293.21.49v4c0 .197-.07.365-.21.503-.137.14-.305.208-.502.208H24.69c-.197 0-.366-.067-.503-.206-.14-.138-.208-.306-.208-.503v-.68c0-.217-.066-.39-.194-.52-.13-.13-.292-.19-.49-.19h-6.844c-.197 0-.365.062-.503.19-.14.13-.21.303-.21.52v10.814c0 .197.07.365.21.504.137.137.305.207.502.207h2.845c.197 0 .36.068.49.207s.192.308.192.504v1.867c0 .2-.065.367-.194.504-.128.14-.292.207-.49.207H8.93c-.2 0-.368-.066-.505-.206-.14-.137-.208-.305-.208-.503V16.27c0-.197.07-.365.208-.504.138-.138.306-.206.504-.206h2.812c.197 0 .365-.07.503-.207.14-.14.208-.307.208-.504V4.03c0-.218-.07-.392-.208-.52-.138-.13-.306-.192-.503-.192H4.928c-.197 0-.365.063-.503.192-.138.13-.207.302-.207.52v.8c0 .197-.07.364-.208.502-.138.14-.306.207-.503.207H1.64c-.197 0-.366-.07-.502-.21-.14-.137-.21-.304-.21-.502V.71c0-.196.07-.358.21-.488C1.273.094 1.44.03 1.64.03h24.947zM59.83 15.2c.177.098.394.182.65.25.257.07.484.105.683.105h1.69c.196 0 .364.068.502.207.138.14.207.307.207.503v1.867c0 .198-.07.366-.207.503-.138.14-.306.207-.503.207h-10.37c-.198 0-.362-.067-.49-.207-.128-.137-.192-.305-.192-.503v-1.867c0-.196.064-.364.193-.503.127-.14.292-.207.488-.207h1.395c.197 0 .3-.034.31-.104.01-.067-.063-.15-.222-.25l-6.932-3.793c-.16-.098-.37-.178-.637-.237s-.5-.09-.696-.09h-5.72c-.196 0-.365.07-.502.207-.138.14-.207.308-.207.504v3.055c0 .197.07.365.207.504.138.136.307.206.503.206h2.815c.197 0 .365.068.504.207.138.14.207.307.207.503v1.867c0 .198-.07.366-.207.503-.14.14-.307.207-.504.207h-10.34c-.197 0-.366-.067-.504-.207-.14-.137-.208-.305-.208-.503v-1.867c0-.196.07-.364.208-.503s.307-.207.504-.207h2.814c.197 0 .365-.07.504-.207.138-.14.208-.308.208-.505V4.03c0-.218-.07-.392-.208-.52-.14-.13-.307-.192-.504-.192h-2.814c-.197 0-.366-.068-.504-.208-.138-.138-.207-.306-.207-.503V.71c0-.196.07-.358.208-.488.14-.128.308-.192.505-.192h24.562c.197 0 .42.04.667.12.247.077.45.177.607.295l2.787 2.104c.158.1.29.26.4.486.107.228.163.44.163.638v3.762c0 .198-.055.406-.164.623-.11.216-.24.384-.4.503l-2.785 2.104c-.16.098-.36.193-.605.28-.247.09-.47.134-.666.134h-4.03c-.198 0-.303.03-.31.09-.01.06.062.14.22.237l6.934 3.79zM39.267 7.08c0 .2.07.367.207.504.138.14.307.207.503.207h15.94c.197 0 .415-.04.652-.13.236-.09.433-.193.59-.31l.623-.447c.158-.117.29-.285.4-.503.11-.218.163-.426.163-.623v-.473c0-.197-.054-.405-.163-.623-.11-.214-.242-.383-.4-.502l-.622-.444c-.16-.118-.354-.217-.59-.296-.238-.08-.456-.118-.653-.118h-15.94c-.197 0-.366.062-.503.19-.138.13-.207.303-.207.52v3.05zM89.22.03c.197 0 .415.044.652.132.237.09.434.193.592.312l2.31 2.104c.158.14.287.32.386.548.1.228.148.44.148.638V15.11c0 .2-.05.412-.148.638-.1.23-.228.41-.385.55l-2.31 2.073c-.16.14-.356.254-.593.343-.237.09-.455.132-.652.132H71.71c-.198 0-.41-.043-.638-.132-.227-.09-.42-.202-.578-.34l-2.31-2.075c-.16-.138-.287-.32-.385-.55-.1-.225-.15-.437-.15-.636V3.764c0-.198.05-.41.15-.638.096-.227.225-.41.383-.548l2.31-2.104c.158-.118.35-.222.578-.312.23-.087.44-.132.64-.132h17.51zm.8 5.184c0-.197-.05-.41-.147-.637-.1-.227-.228-.41-.386-.548l-.297-.24c-.16-.137-.352-.25-.578-.34-.227-.09-.44-.133-.636-.133H72.984c-.197 0-.415.044-.652.133s-.425.204-.563.342l-.298.237c-.158.137-.286.32-.385.546-.1.228-.147.44-.147.637v8.414c0 .198.05.41.148.638.1.228.227.41.385.55l.296.265c.136.14.325.253.56.343.238.088.456.133.653.133h14.992c.197 0 .41-.045.636-.133.228-.09.42-.203.58-.342l.295-.264c.158-.14.286-.32.386-.55.1-.226.148-.438.148-.637V5.213zM121.1 0c.196 0 .42.044.666.133.247.09.45.193.607.312l2.786 2.073c.155.12.29.287.4.504.106.22.16.426.16.622v3.763c0 .22-.053.436-.162.652-.11.215-.244.383-.4.502l-2.787 2.074c-.157.118-.36.223-.606.31-.247.09-.47.134-.667.134h-14.43c-.197 0-.366.065-.503.194-.14.13-.208.29-.208.488v3.082c0 .197.068.365.207.504.137.137.306.207.503.207h2.815c.198 0 .366.068.504.207.138.14.207.307.207.503v1.867c0 .198-.07.366-.206.503-.14.14-.307.207-.503.207H99.14c-.197 0-.365-.067-.502-.207-.14-.137-.208-.305-.208-.503v-1.867c0-.196.07-.364.208-.503.138-.14.306-.207.503-.207h2.815c.197 0 .364-.07.503-.207.138-.14.208-.307.208-.504V4.03c0-.198-.07-.366-.207-.505-.14-.138-.307-.207-.505-.207H99.14c-.198 0-.366-.068-.503-.208-.14-.138-.208-.306-.208-.503V.71c0-.196.07-.364.207-.503.137-.14.305-.207.503-.207h21.96zm1.332 5.304c0-.197-.055-.405-.163-.623-.11-.214-.244-.383-.4-.502l-.595-.444c-.158-.118-.36-.222-.607-.31-.248-.09-.47-.135-.668-.135l-13.333.03c-.198 0-.367.07-.504.206-.14.14-.208.307-.208.504v3.05c0 .2.07.36.208.49.137.127.306.19.503.19H120c.198 0 .42-.037.667-.117.246-.08.448-.178.606-.296l.593-.445c.157-.117.29-.285.4-.503.106-.22.162-.427.162-.624v-.473zM160.355.03c.197 0 .365.063.503.19.14.13.208.293.208.49v1.896c0 .197-.07.365-.208.503-.138.14-.307.206-.503.206h-2.844c-.195 0-.36.063-.49.192-.125.127-.19.3-.19.518V14.84c0 .197.065.365.19.504.13.137.294.207.49.207h2.846c.197 0 .365.07.503.208.14.14.207.307.207.503v1.868c0 .198-.07.366-.208.503-.14.14-.308.208-.504.208h-10.37c-.198 0-.366-.067-.503-.207-.14-.136-.208-.304-.208-.502V16.26c0-.195.07-.363.208-.502.137-.14.306-.207.504-.207h2.814c.217 0 .39-.07.518-.206.13-.14.192-.307.192-.504v-3.29c0-.196-.064-.364-.193-.503-.128-.14-.3-.208-.517-.208h-14.815c-.197 0-.365.07-.503.206-.14.138-.208.306-.208.503v3.29c0 .195.07.363.208.502.138.137.306.207.503.207h2.815c.197 0 .365.067.503.206.138.14.207.307.207.503v1.866c0 .198-.07.366-.207.503-.14.14-.307.206-.503.206h-10.34c-.198 0-.366-.067-.503-.207-.14-.138-.208-.306-.208-.504V16.26c0-.197.067-.365.206-.504.138-.14.306-.207.503-.207h2.813c.198 0 .365-.07.504-.208.138-.14.207-.307.207-.504V4.03c0-.218-.07-.392-.207-.52-.14-.13-.306-.192-.504-.192h-2.814c-.2 0-.367-.068-.504-.208-.14-.138-.208-.306-.208-.503V.71c0-.196.068-.358.207-.488.138-.128.306-.192.503-.192h10.34c.197 0 .365.064.503.192.14.13.208.292.208.49v1.895c0 .197-.07.365-.207.503-.14.14-.306.208-.502.208h-2.815c-.197 0-.365.063-.503.192-.14.128-.208.302-.208.52v3.287c0 .198.07.366.208.504.138.14.306.21.503.21H152.8c.216 0 .39-.07.517-.208.13-.137.192-.305.192-.503V4.03c0-.218-.065-.392-.194-.52-.128-.13-.3-.192-.517-.192h-2.815c-.2 0-.367-.068-.504-.208-.14-.138-.207-.306-.207-.503V.71c0-.196.07-.358.208-.488.138-.128.307-.192.505-.192h10.37zm23.022.68c0-.196.063-.358.192-.488.127-.128.3-.192.516-.192h9.63c.196 0 .365.064.503.192.137.13.206.292.206.49v1.895c0 .197-.07.36-.207.488-.14.13-.308.192-.505.192h-2.25c-.2 0-.416.045-.653.134s-.436.205-.592.343l-8.325 7.288c-.158.12-.286.29-.385.52-.1.23-.148.44-.148.64v2.635c0 .197.07.365.208.504.14.136.306.206.503.206h3.645c.197 0 .365.068.503.207s.21.307.21.503v1.867c0 .198-.07.366-.208.503-.137.14-.305.207-.502.207h-11.525c-.198 0-.367-.067-.503-.207-.14-.137-.208-.305-.208-.503v-1.867c0-.196.07-.364.208-.503.136-.14.305-.207.503-.207h3.644c.196 0 .365-.07.502-.207.14-.14.208-.308.208-.505v-2.727c0-.197-.05-.404-.147-.62-.098-.22-.227-.397-.385-.535l-8.235-7.2c-.16-.137-.355-.25-.594-.34-.238-.09-.456-.134-.65-.134h-2.343c-.198 0-.366-.064-.503-.193-.137-.13-.207-.29-.207-.488V.71c0-.196.07-.358.208-.488.138-.128.306-.192.504-.192h9.63c.215 0 .387.064.516.192.13.13.194.292.194.49v1.895c0 .197-.063.36-.193.488s-.3.192-.517.192h-1.63c-.217 0-.34.05-.37.148-.03.1.025.207.164.326l5.48 4.92c.157.14.335.208.533.208.197 0 .375-.07.534-.207l5.48-4.92c.16-.117.218-.226.18-.324-.04-.1-.16-.148-.356-.148h-1.75c-.217 0-.388-.063-.517-.192s-.192-.29-.192-.488V.71z" fill="#24559C"/><path d="M9.472 112.904H0l1.612-15.456h9.472l2.407 1.48-1.3 12.495-2.717 1.48zm-6.116-2.65h5.85l1.06-10.156h-5.85l-1.06 10.156zm20.53 2.65l-2.717-5.83h-1.923l-.596 5.83h-3.09l1.61-15.456h8.37l2.407 1.48-.707 6.667-2.715 1.48 2.76 5.83h-3.4zm-4.35-8.478h4.746l.44-4.328h-4.746l-.44 4.328zm23.154 8.478h-3.046l-.84-3.334H33.02l-1.5 3.334h-3.05l7.132-15.456h3.18l3.907 15.456zm-8.455-5.984h3.908l-1.325-5.586h-.044l-2.54 5.586zm13.53 5.984h-3.09l1.61-15.456h9.473l-.287 2.65h-6.38l-.352 3.532h5.056l-.287 2.648H48.45l-.685 6.626zm14.525 0h-3.092l1.325-12.807H56.35l.287-2.65h11.438l-.287 2.65h-4.173l-1.326 12.807zm16-6.6l-4.04-8.855h3.356l2.54 5.782h.044l3.753-5.784H87.3l-5.917 8.875-.685 6.58h-3.09l.683-6.602zm18.83 6.71h-6.91l-2.408-1.48 1.347-12.718 2.714-1.48h6.91l2.407 1.48-1.346 12.72-2.715 1.478zm-6.094-2.65h5.85l1.083-10.377h-5.853l-1.082 10.378zm25.85-12.916l-1.48 14.087-2.715 1.48h-6.91l-2.406-1.48 1.48-14.087h3.09l-1.325 12.696h5.85l1.325-12.696h3.092zm10.24 15.456l-2.716-5.83h-1.92l-.597 5.83h-3.09l1.61-15.456h8.37l2.406 1.48-.71 6.667-2.715 1.48 2.76 5.83h-3.4zm-4.35-8.478h4.748l.44-4.328h-4.746l-.44 4.328zm25.45 8.588h-6.91l-2.407-1.48 1.345-12.718 2.716-1.48h6.91l2.408 1.48-1.348 12.72-2.715 1.478zm-6.092-2.65h5.85l1.083-10.377h-5.85l-1.083 10.378zm27.042 2.54h-3.312l-1.7-10.443h-.044l-3.864 10.445h-3.312l-2.318-15.456h3.003l1.5 10.6h.043l3.93-10.6h3.136l1.72 10.553h.045l3.71-10.554h3.002l-5.542 15.455zm9.222 0h-3.09l1.61-15.456h2.893l5.61 10.002h.044l1.06-10.002h3.09l-1.61 15.456H185.1l-5.63-10.002h-.044l-1.038 10.002zm30.485-4.527l-.33 3.158-2.717 1.48h-6.25l-2.406-1.48 1.347-12.72 2.716-1.478h6.25l2.406 1.48-.333 3.157h-3.09l.198-1.987h-5.188l-1.082 10.378h5.188l.2-1.988h3.09zm15.517 4.527h-3.047l-.84-3.334h-5.784l-1.503 3.334h-3.047l7.133-15.456h3.18l3.907 15.456zm-8.457-5.984h3.908l-1.323-5.586h-.044l-2.54 5.586zm18.763 5.984l-2.716-5.83h-1.92l-.597 5.83h-3.09l1.61-15.456h8.37l2.406 1.48-.71 6.667-2.715 1.48 2.76 5.83h-3.4zm-4.35-8.478h4.748l.44-4.328h-4.746l-.44 4.328zm19.954 8.478h-9.47l1.61-15.456h9.473l2.407 1.48-1.303 12.495-2.716 1.48zm-6.114-2.65h5.85l1.06-10.156h-5.85l-1.06 10.156zm13.684-11.438l2.716-1.48h5.586l2.406 1.48-.31 2.938h-3.09l.176-1.767h-4.526l-.397 3.688h5.058l2.407 1.48-.663 6.38-2.715 1.48h-5.807l-2.407-1.48.31-2.938h3.09l-.175 1.768h4.747l.397-3.82h-5.057l-2.407-1.48.664-6.25zM.92 90.76h268v2H.92z" fill="#828282"/></svg>