<svg xmlns="http://www.w3.org/2000/svg" xmlns:xlink="http://www.w3.org/1999/xlink" width="923" height="369" viewBox="0 0 923 369">
  <defs>
    <clipPath id="clip-Artboard_1">
      <rect width="923" height="369"/>
    </clipPath>
  </defs>
  <g id="Artboard_1" data-name="Artboard – 1" clip-path="url(#clip-Artboard_1)">
    <rect width="923" height="369" fill="#dbfbfd"/>
    <ellipse id="Ellipse_13" data-name="Ellipse 13" cx="55.873" cy="3.944" rx="55.873" ry="3.944" transform="translate(94.076 321.542)" fill="#d0cde1" opacity="0.362"/>
    <ellipse id="Ellipse_14" data-name="Ellipse 14" cx="55.873" cy="3.944" rx="55.873" ry="3.944" transform="translate(221.076 243.542)" fill="#d0cde1" opacity="0.362"/>
    <ellipse id="Ellipse_15" data-name="Ellipse 15" cx="55.873" cy="3.944" rx="55.873" ry="3.944" transform="translate(307.076 291.542)" fill="#d0cde1" opacity="0.362"/>
    <ellipse id="Ellipse_16" data-name="Ellipse 16" cx="55.873" cy="3.944" rx="55.873" ry="3.944" transform="translate(198.076 317.542)" fill="#d0cde1" opacity="0.362"/>
    <path id="Path_121" data-name="Path 121" d="M200.147,485.929l48.687-72.4-48.587,80.191.1,8.147q-5.331.041-10.559-.178L192.2,396.963l-.066-.808.089-.156.231-9.9L139.14,308.692l53.255,70,.189,2.092,1.824-79.124-46.052-80.258,46.183,66.358-.482-163.924V123.3l.016.537,3.057,129.194L239.1,200.547l-41.834,63.609.916,70.774,38.622-69.073-38.48,79.478.51,39.354L255,288.471l-56,109.947Z" transform="translate(-34.29 -179.013)" fill="#d0cde1" opacity="0.362"/>
    <path id="Path_122" data-name="Path 122" d="M200.147,485.929l48.687-72.4-48.587,80.191.1,8.147q-5.331.041-10.559-.178L192.2,396.963l-.066-.808.089-.156.231-9.9L139.14,308.692l53.255,70,.189,2.092,1.824-79.124-46.052-80.258,46.183,66.358-.482-163.924V123.3l.016.537,3.057,129.194L239.1,200.547l-41.834,63.609.916,70.774,38.622-69.073-38.48,79.478.51,39.354L255,288.471l-56,109.947Z" transform="translate(92.71 -257.013)" fill="#d0cde1" opacity="0.362"/>
    <path id="Path_123" data-name="Path 123" d="M200.147,485.929l48.687-72.4-48.587,80.191.1,8.147q-5.331.041-10.559-.178L192.2,396.963l-.066-.808.089-.156.231-9.9L139.14,308.692l53.255,70,.189,2.092,1.824-79.124-46.052-80.258,46.183,66.358-.482-163.924V123.3l.016.537,3.057,129.194L239.1,200.547l-41.834,63.609.916,70.774,38.622-69.073-38.48,79.478.51,39.354L255,288.471l-56,109.947Z" transform="translate(178.71 -209.013)" fill="#d0cde1" opacity="0.362"/>
    <path id="Path_124" data-name="Path 124" d="M200.147,485.929l48.687-72.4-48.587,80.191.1,8.147q-5.331.041-10.559-.178L192.2,396.963l-.066-.808.089-.156.231-9.9L139.14,308.692l53.255,70,.189,2.092,1.824-79.124-46.052-80.258,46.183,66.358-.482-163.924V123.3l.016.537,3.057,129.194L239.1,200.547l-41.834,63.609.916,70.774,38.622-69.073-38.48,79.478.51,39.354L255,288.471l-56,109.947Z" transform="translate(69.71 -183.013)" fill="#d0cde1" opacity="0.362"/>
    <g id="undraw_hacker_mindset_gjwq" transform="translate(170.85 51.282)">
      <rect id="Rectangle_3" data-name="Rectangle 3" width="260.795" height="132.78" transform="translate(211.075 122.927)" fill="#3f3d56"/>
      <rect id="Rectangle_4" data-name="Rectangle 4" width="26.411" height="2.201" transform="translate(258.387 167.637)" fill="#38d39f"/>
      <rect id="Rectangle_5" data-name="Rectangle 5" width="26.411" height="2.201" transform="translate(293.602 167.637)" fill="#38d39f"/>
      <rect id="Rectangle_6" data-name="Rectangle 6" width="26.411" height="2.201" transform="translate(344.774 187.995)" fill="#38d39f"/>
      <rect id="Rectangle_7" data-name="Rectangle 7" width="26.411" height="2.201" transform="translate(380.539 187.995)" fill="#38d39f"/>
      <rect id="Rectangle_8" data-name="Rectangle 8" width="77.583" height="2.201" transform="translate(329.367 167.637)" fill="#38d39f"/>
      <rect id="Rectangle_9" data-name="Rectangle 9" width="77.583" height="2.201" transform="translate(258.387 187.995)" fill="#38d39f"/>
      <rect id="Rectangle_10" data-name="Rectangle 10" width="77.583" height="2.201" transform="translate(258.387 208.354)" fill="#38d39f"/>
      <rect id="Rectangle_11" data-name="Rectangle 11" width="53.923" height="2.201" transform="translate(353.027 208.354)" fill="#38d39f"/>
      <path id="Path_28" data-name="Path 28" d="M580.808,352.276l-9.292-9.291,9.292-9.292,1.859,1.859-7.433,7.433,7.433,7.432Z" transform="translate(-329.844 -175.348)" fill="#38d39f"/>
      <path id="Path_29" data-name="Path 29" d="M860.067,417.569l-1.859-1.859,7.433-7.434-7.433-7.432,1.859-1.859,9.292,9.291Z" transform="translate(-431.086 -187.722)" fill="#38d39f"/>
      <rect id="Rectangle_12" data-name="Rectangle 12" width="18.973" height="2.629" transform="translate(413.695 228.973) rotate(-73.14)" fill="#38d39f"/>
    </g>
    <ellipse id="Ellipse_1" data-name="Ellipse 1" cx="55.873" cy="3.944" rx="55.873" ry="3.944" transform="translate(28.076 297.542)" fill="#d0cde1" opacity="0.362"/>
    <ellipse id="Ellipse_2" data-name="Ellipse 2" cx="39.44" cy="2.784" rx="39.44" ry="2.784" transform="translate(119.444 277.862)" fill="#d0cde1" opacity="0.362"/>
    <path id="Path_50" data-name="Path 50" d="M200.147,485.929l48.687-72.4-48.587,80.191.1,8.147q-5.331.041-10.559-.178L192.2,396.963l-.066-.808.089-.156.231-9.9L139.14,308.692l53.255,70,.189,2.092,1.824-79.124-46.052-80.258,46.183,66.358-.482-163.924V123.3l.016.537,3.057,129.194L239.1,200.547l-41.834,63.609.916,70.774,38.622-69.073-38.48,79.478.51,39.354L255,288.471l-56,109.947Z" transform="translate(-111.29 -202.013)" fill="#d0cde1" opacity="0.362"/>
    <rect id="Rectangle_33" data-name="Rectangle 33" width="343.72" height="190.17" transform="translate(546.992 63.385)" fill="#38d39f"/>
    <path id="Path_51" data-name="Path 51" d="M754.886,453.218H416.646c-2.268,0-4.107,1.521-4.11,3.395V645.5c0,1.875,1.84,3.395,4.11,3.395h338.24c2.27,0,4.11-1.52,4.11-3.395V456.612c0-1.874-1.841-3.392-4.11-3.395Zm1.37,192.284a1.039,1.039,0,0,1-.4.8,1.525,1.525,0,0,1-.97.33H416.646a1.525,1.525,0,0,1-.97-.33,1.039,1.039,0,0,1-.4-.8V456.612a1.27,1.27,0,0,1,1.37-1.132h338.24a1.27,1.27,0,0,1,1.37,1.132Z" transform="translate(154.996 -417.222)" fill="#3f3d56"/>
    <rect id="Rectangle_38" data-name="Rectangle 38" width="71.209" height="30.127" rx="2" transform="translate(589.444 52.431)" fill="#3f3d56"/>
    <path id="Path_53" data-name="Path 53" d="M475.53,484.716c0,5.294-2.452,9.586-5.478,9.586s-5.478-4.292-5.478-9.586,5.478-9.586,5.478-9.586S475.53,479.422,475.53,484.716Z" transform="translate(154.996 -417.222)" fill="#38d39f"/>
    <g id="Group_3" data-name="Group 3" transform="translate(221 -232)">
      <rect id="Rectangle_59" data-name="Rectangle 59" width="95.241" height="4.998" rx="2" transform="translate(558.821 363.754)" fill="#3f3d56"/>
      <rect id="Rectangle_60" data-name="Rectangle 60" width="95.241" height="4.998" rx="2" transform="translate(558.821 379.582)" fill="#3f3d56"/>
      <path id="Path_63" data-name="Path 63" d="M2,0H73.241a2,2,0,0,1,2,2V3a2,2,0,0,1-2,2H2A2,2,0,0,1,0,3V2A2,2,0,0,1,2,0Z" transform="translate(558.821 395.239)" fill="#3f3d56"/>
    </g>
    <g id="Group_1" data-name="Group 1" transform="translate(221 -232)">
      <rect id="Rectangle_41" data-name="Rectangle 41" width="95.241" height="4.998" rx="2" transform="translate(340.821 363.754)" fill="#3f3d56"/>
      <rect id="Rectangle_42" data-name="Rectangle 42" width="95.241" height="4.998" rx="2" transform="translate(340.821 379.582)" fill="#3f3d56"/>
      <rect id="Rectangle_43" data-name="Rectangle 43" width="95.241" height="4.998" rx="2" transform="translate(340.821 395.41)" fill="#3f3d56"/>
      <rect id="Rectangle_44" data-name="Rectangle 44" width="95.241" height="4.998" rx="2" transform="translate(340.821 411.239)" fill="#3f3d56"/>
      <rect id="Rectangle_45" data-name="Rectangle 45" width="88.241" height="4.998" rx="2" transform="translate(340.821 427.067)" fill="#3f3d56"/>
    </g>
    <g id="Group_2" data-name="Group 2" transform="translate(221 -232)">
      <rect id="Rectangle_54" data-name="Rectangle 54" width="95.241" height="4.998" rx="2" transform="translate(451.821 363.754)" fill="#3f3d56"/>
      <rect id="Rectangle_55" data-name="Rectangle 55" width="95.241" height="4.998" rx="2" transform="translate(451.821 379.582)" fill="#3f3d56"/>
      <rect id="Rectangle_56" data-name="Rectangle 56" width="95.241" height="4.998" rx="2" transform="translate(451.821 395.41)" fill="#3f3d56"/>
      <rect id="Rectangle_57" data-name="Rectangle 57" width="95.241" height="4.998" rx="2" transform="translate(451.821 411.239)" fill="#3f3d56"/>
      <rect id="Rectangle_58" data-name="Rectangle 58" width="43.241" height="4.998" rx="2" transform="translate(451.821 427.067)" fill="#3f3d56"/>
    </g>
    <text id="CSS_Features_for_2020" data-name="CSS Features for 2020" transform="translate(12 110)" fill="#222" font-size="48" font-family="HelveticaNeue-Bold, Helvetica Neue" font-weight="700"><tspan x="0" y="0">CSS Features for 2020</tspan></text>
  </g>
</svg>
