<?xml version="1.0" encoding="utf-8"?>
<!-- Generator: Adobe Illustrator 16.0.0, SVG Export Plug-In . SVG Version: 6.00 Build 0)  -->
<!DOCTYPE svg PUBLIC "-//W3C//DTD SVG 1.1//EN" "http://www.w3.org/Graphics/SVG/1.1/DTD/svg11.dtd">
<svg version="1.1" id="Layer_1" xmlns="http://www.w3.org/2000/svg" xmlns:xlink="http://www.w3.org/1999/xlink" x="0px" y="0px"
	 width="73.293px" height="22.25px" viewBox="0 0 73.293 22.25" enable-background="new 0 0 73.293 22.25" xml:space="preserve">
<g>
	<path fill="#235980" d="M35.314,12.508c0,0.102-0.027,0.193-0.082,0.275c-0.056,0.082-0.07,0.178-0.047,0.287
		c-0.031,0.055-0.072,0.098-0.123,0.129s-0.068,0.09-0.054,0.176c-0.163,0.086-0.313,0.193-0.45,0.322
		c-0.138,0.129-0.283,0.252-0.439,0.369c-0.094,0.069-0.174,0.119-0.24,0.146c-0.066,0.027-0.146,0.068-0.24,0.123l-0.293,0.188
		c-0.133,0.069-0.268,0.141-0.404,0.211c-0.136,0.07-0.26,0.16-0.369,0.27c-0.164,0.008-0.332,0.053-0.504,0.135
		c-0.172,0.082-0.336,0.154-0.492,0.217c-0.062,0.023-0.125,0.041-0.188,0.054c-0.063,0.012-0.125,0.032-0.188,0.063l-0.188,0.082
		c-0.109,0.055-0.238,0.111-0.387,0.17c-0.149,0.06-0.281,0.088-0.398,0.088c-0.07,0.031-0.129,0.086-0.176,0.164
		c-0.258,0.086-0.523,0.152-0.797,0.199s-0.539,0.121-0.797,0.223c-0.086,0.039-0.174,0.093-0.264,0.158
		c-0.09,0.066-0.186,0.096-0.287,0.088c-0.023,0.039-0.039,0.086-0.047,0.142c-0.008,0.055-0.02,0.108-0.035,0.164H27.79
		c-0.031,0-0.045-0.017-0.041-0.048c0.004-0.03-0.01-0.047-0.041-0.047c-0.023,0-0.039,0.004-0.047,0.013
		c-0.102,0.022-0.197,0.043-0.287,0.059c-0.09,0.017-0.189,0.023-0.299,0.023c-0.062,0-0.162-0.009-0.299-0.023
		c-0.137-0.015-0.236-0.036-0.299-0.06c-0.047-0.023-0.086-0.067-0.117-0.131c-0.031-0.062-0.061-0.129-0.088-0.2
		s-0.051-0.144-0.07-0.22c-0.019-0.074-0.037-0.135-0.053-0.184c0.023-0.087,0.062-0.156,0.117-0.213
		c0.055-0.055,0.098-0.126,0.129-0.213c0.07-0.008,0.141-0.02,0.211-0.035c0.07-0.015,0.141-0.02,0.211-0.012
		c0.242-0.07,0.486-0.139,0.732-0.204c0.246-0.065,0.49-0.134,0.732-0.204c0.242-0.068,0.48-0.146,0.715-0.232
		c0.234-0.086,0.461-0.189,0.68-0.314h0.246c0.141-0.077,0.297-0.145,0.469-0.197c0.172-0.055,0.312-0.144,0.422-0.269
		c0.258-0.054,0.527-0.128,0.809-0.222c0.281-0.094,0.516-0.24,0.703-0.442c0.117-0.017,0.219-0.045,0.305-0.089
		c0.086-0.043,0.168-0.088,0.246-0.135L33.11,13.2c0.078-0.056,0.167-0.099,0.27-0.13c0.062-0.062,0.121-0.129,0.177-0.198
		c0.055-0.07,0.12-0.129,0.198-0.177c-0.022-0.125-0.086-0.219-0.188-0.28c-0.102-0.062-0.19-0.138-0.27-0.224h-0.258
		c-0.203-0.125-0.42-0.221-0.65-0.286c-0.23-0.066-0.459-0.14-0.686-0.218c-0.016-0.008-0.035-0.012-0.059-0.012
		c-0.055,0-0.088,0.02-0.1,0.059c-0.012,0.039-0.045,0.056-0.1,0.048c-0.07-0.048-0.145-0.076-0.223-0.089
		c-0.078-0.012-0.16-0.018-0.246-0.018c-0.109,0-0.217,0.006-0.322,0.018c-0.105,0.013-0.213,0.019-0.322,0.019
		c-0.055,0-0.109-0.004-0.164-0.012c-0.055-0.009-0.109-0.027-0.164-0.06h-0.152c-0.164,0-0.326,0.006-0.486,0.019
		c-0.16,0.012-0.318,0.018-0.475,0.018c-0.086,0-0.168-0.002-0.246-0.006s-0.156-0.014-0.234-0.028
		c-0.164,0.077-0.34,0.133-0.527,0.164c-0.187,0.03-0.381,0.055-0.58,0.069c-0.199,0.015-0.396,0.028-0.592,0.041
		c-0.196,0.013-0.383,0.033-0.562,0.063c-0.047-0.008-0.092-0.014-0.135-0.018s-0.084-0.006-0.123-0.006s-0.08,0.002-0.123,0.006
		s-0.084,0.01-0.123,0.018c-0.102-0.108-0.225-0.188-0.369-0.239c-0.144-0.052-0.287-0.084-0.428-0.101
		c-0.109-0.133-0.189-0.268-0.24-0.404c-0.051-0.136-0.084-0.291-0.1-0.463h0.047c0.055,0,0.08-0.027,0.076-0.082
		c-0.004-0.055,0.014-0.102,0.053-0.141c0.039-0.047,0.092-0.08,0.158-0.1c0.066-0.02,0.131-0.041,0.193-0.064
		s0.123-0.053,0.182-0.088c0.059-0.035,0.104-0.092,0.135-0.17h0.152c0.031,0,0.064,0.002,0.1,0.006
		c0.036,0.004,0.064,0.018,0.088,0.041c0.031-0.031,0.07-0.059,0.117-0.082c0.047-0.023,0.092-0.047,0.135-0.07
		s0.08-0.051,0.111-0.082c0.031-0.031,0.051-0.078,0.059-0.141c0.008,0.023,0.027,0.035,0.059,0.035
		c0.032,0,0.061-0.008,0.088-0.023c0.027-0.015,0.061-0.02,0.1-0.012c0.039-0.109,0.105-0.168,0.199-0.176
		c0.094-0.008,0.18-0.035,0.258-0.082c0.055-0.031,0.105-0.068,0.152-0.111c0.047-0.043,0.098-0.084,0.152-0.123l0.703-0.539
		l1.078-0.82c0.359-0.273,0.727-0.527,1.102-0.762c0.016-0.047,0.039-0.082,0.07-0.105c0.031-0.023,0.062-0.049,0.094-0.076
		c0.032-0.027,0.057-0.057,0.076-0.088c0.019-0.031,0.025-0.078,0.018-0.141c0.109-0.023,0.193-0.066,0.252-0.129
		s0.111-0.131,0.158-0.205c0.047-0.074,0.096-0.148,0.146-0.223c0.05-0.075,0.119-0.131,0.205-0.17
		c-0.008-0.023-0.012-0.059-0.012-0.105c0-0.062,0.006-0.125,0.018-0.188c0.012-0.063,0.041-0.117,0.088-0.164
		c-0.07-0.164-0.191-0.283-0.363-0.357c-0.172-0.074-0.336-0.139-0.492-0.193h-0.035c-0.039,0-0.061,0.018-0.064,0.053
		c-0.003,0.035-0.025,0.059-0.064,0.075c-0.125-0.031-0.266-0.047-0.422-0.047c-0.156,0-0.311,0.012-0.463,0.035
		c-0.152,0.023-0.307,0.027-0.463,0.012c-0.023,0.031-0.049,0.062-0.076,0.094c-0.027,0.032-0.061,0.059-0.1,0.082
		c-0.164,0.008-0.328,0.031-0.492,0.07l-0.492,0.117l-0.27,0.059c-0.039,0.016-0.066,0.043-0.082,0.082
		c-0.016,0.039-0.027,0.082-0.035,0.129c-0.047-0.008-0.076-0.027-0.088-0.059c-0.012-0.032-0.041-0.055-0.088-0.07
		c-0.18,0.109-0.373,0.199-0.58,0.27c-0.207,0.071-0.393,0.18-0.557,0.328C25.838,6.211,25.76,6.18,25.658,6.18
		c-0.086,0-0.18,0.027-0.281,0.082c-0.101,0.055-0.164,0.125-0.188,0.211c-0.078-0.016-0.137-0.023-0.176-0.023
		c-0.086,0-0.158,0.023-0.217,0.07s-0.115,0.1-0.17,0.158c-0.055,0.058-0.113,0.115-0.176,0.17
		c-0.063,0.055-0.141,0.086-0.234,0.094c0,0.039,0.002,0.08,0.006,0.123c0.004,0.043,0.006,0.088,0.006,0.135
		c0,0.352-0.02,0.701-0.059,1.049S24.11,8.946,24.11,9.298c0,0.078,0.004,0.154,0.012,0.229c0.008,0.075,0.012,0.154,0.012,0.24
		c0,0.023-0.018,0.074-0.053,0.152s-0.061,0.137-0.076,0.176c0.031,0.086,0.045,0.172,0.041,0.258s0.015,0.167,0.054,0.245
		c-0.07,0.062-0.105,0.148-0.105,0.258c0,0.047,0.002,0.094,0.006,0.141s0.006,0.094,0.006,0.141v0.141
		c-0.023,0.156-0.039,0.314-0.047,0.475s-0.012,0.318-0.012,0.475c0,0.07,0.002,0.189,0.006,0.357s0.014,0.355,0.029,0.562
		s0.039,0.42,0.07,0.639c0.031,0.219,0.072,0.42,0.123,0.604c0.051,0.185,0.115,0.334,0.193,0.451
		c0.078,0.117,0.172,0.176,0.281,0.176c0.023,0,0.053-0.004,0.088-0.012c0.035-0.008,0.053-0.027,0.053-0.059
		c0-0.032-0.006-0.059-0.018-0.082c-0.012-0.023-0.018-0.051-0.018-0.082l0.012-0.023c0.062,0.031,0.131,0.051,0.205,0.059
		c0.074,0.009,0.15,0.017,0.229,0.023c0.079,0.008,0.152,0.021,0.223,0.041c0.071,0.02,0.133,0.061,0.188,0.123
		c-0.031,0.062-0.047,0.129-0.047,0.199c0,0.094,0.023,0.182,0.07,0.264c0.047,0.082,0.078,0.166,0.094,0.252
		c-0.148,0.047-0.283,0.1-0.404,0.158c-0.121,0.059-0.24,0.113-0.357,0.164c-0.117,0.051-0.242,0.098-0.375,0.141
		c-0.133,0.043-0.285,0.072-0.457,0.088c-0.109-0.069-0.203-0.133-0.281-0.188s-0.184-0.09-0.316-0.105
		c-0.203-0.272-0.371-0.58-0.504-0.92c-0.133-0.34-0.236-0.692-0.311-1.061c-0.075-0.368-0.125-0.736-0.152-1.107
		c-0.027-0.371-0.041-0.721-0.041-1.049c0-0.359,0.014-0.717,0.041-1.072c0.027-0.355,0.064-0.713,0.111-1.072
		c0.016-0.109,0.031-0.221,0.047-0.334c0.016-0.113,0.031-0.225,0.047-0.334c0.016-0.039,0.029-0.084,0.041-0.135
		c0.012-0.051,0.018-0.096,0.018-0.135c0-0.133-0.004-0.266-0.012-0.398C22.816,8.23,22.812,8.1,22.812,7.975
		c0-0.195,0.012-0.395,0.035-0.598c0.008-0.039,0.021-0.09,0.041-0.152s0.029-0.117,0.029-0.164c0-0.062-0.016-0.105-0.047-0.129
		c-0.031-0.024-0.059-0.062-0.082-0.117c0.023-0.078,0.043-0.154,0.059-0.229c0.016-0.075,0.023-0.15,0.023-0.229
		c0-0.148-0.027-0.277-0.082-0.387c0.039-0.203,0.098-0.402,0.176-0.598c0.078-0.196,0.215-0.344,0.41-0.445
		c0.156,0.008,0.314,0.023,0.475,0.047c0.161,0.024,0.299,0.09,0.416,0.199c0.055-0.031,0.117-0.051,0.188-0.059l0.223-0.023
		c0.078-0.008,0.148-0.021,0.211-0.041c0.063-0.02,0.117-0.061,0.164-0.123c0.156-0.031,0.324-0.076,0.504-0.135
		c0.18-0.059,0.336-0.127,0.469-0.205h0.258c0.055-0.039,0.117-0.066,0.188-0.082l0.223-0.059c0.078-0.023,0.15-0.047,0.217-0.07
		c0.067-0.023,0.119-0.062,0.158-0.117h0.047c0.18,0,0.355-0.039,0.527-0.117s0.34-0.148,0.504-0.211
		c0.039-0.016,0.1-0.043,0.182-0.082s0.139-0.059,0.17-0.059c0.109-0.016,0.219-0.025,0.328-0.029
		c0.109-0.004,0.219-0.018,0.328-0.041c0.25-0.039,0.498-0.084,0.744-0.135s0.494-0.076,0.744-0.076c0.086,0,0.166,0.002,0.24,0.006
		c0.074,0.004,0.154,0.01,0.24,0.018c0.008,0.031,0.027,0.057,0.059,0.076c0.032,0.019,0.061,0.037,0.088,0.053
		c0.027,0.016,0.053,0.037,0.076,0.064c0.023,0.027,0.031,0.064,0.023,0.111c0.016,0.016,0.031,0.023,0.047,0.023
		c0.023,0,0.045-0.012,0.064-0.035c0.019-0.023,0.049-0.035,0.088-0.035h0.059c0.102,0.109,0.201,0.213,0.299,0.311
		c0.098,0.098,0.221,0.178,0.369,0.24c0.062,0.234,0.137,0.465,0.223,0.691c0.086,0.226,0.129,0.469,0.129,0.727
		c0,0.156-0.023,0.309-0.07,0.457c-0.109,0.055-0.188,0.141-0.234,0.258c-0.046,0.117-0.09,0.23-0.129,0.34
		c-0.219,0.109-0.402,0.254-0.551,0.434c-0.149,0.18-0.301,0.359-0.457,0.539h-0.188c-0.031,0-0.055,0.012-0.07,0.035l-0.105,0.117
		C30.768,8,30.691,8.062,30.609,8.125s-0.143,0.145-0.182,0.246c-0.242,0.133-0.475,0.281-0.697,0.445s-0.436,0.336-0.639,0.516
		c-0.086,0.07-0.172,0.15-0.258,0.24c-0.086,0.09-0.172,0.166-0.258,0.229c-0.047,0.039-0.1,0.072-0.158,0.1
		c-0.058,0.028-0.11,0.06-0.157,0.099c-0.102,0.078-0.195,0.158-0.281,0.24s-0.176,0.158-0.27,0.229
		c0.352-0.016,0.707-0.025,1.066-0.029s0.715-0.01,1.066-0.018c0.18,0,0.355-0.006,0.527-0.018c0.172-0.012,0.348-0.018,0.527-0.018
		c0.031,0,0.059,0.006,0.082,0.018c0.023,0.012,0.051,0.021,0.082,0.029c0.133,0.023,0.25,0.051,0.352,0.082
		c0.375,0.07,0.75,0.133,1.125,0.188c0.375,0.055,0.741,0.145,1.103,0.27c0.102,0.039,0.178,0.082,0.229,0.129
		s0.143,0.059,0.275,0.035c0.108,0.109,0.229,0.195,0.356,0.258s0.26,0.117,0.394,0.164c0.102,0.156,0.196,0.305,0.287,0.445
		C35.27,12.145,35.314,12.312,35.314,12.508z"/>
	<path fill="#235980" d="M49.939,14.98c-0.017,0.155-0.07,0.278-0.164,0.369c-0.094,0.09-0.215,0.135-0.363,0.135
		c-0.078,0-0.152-0.012-0.223-0.035c-0.148,0.117-0.324,0.207-0.527,0.27c-0.203,0.063-0.395,0.125-0.574,0.188
		c-0.219-0.009-0.434-0.027-0.645-0.06c-0.211-0.031-0.43-0.039-0.656-0.022c-0.078-0.056-0.16-0.091-0.246-0.105
		s-0.174-0.024-0.264-0.028s-0.176-0.019-0.258-0.041c-0.082-0.023-0.162-0.078-0.24-0.164h-0.586c-0.055,0-0.135-0.025-0.24-0.076
		s-0.223-0.104-0.352-0.158c-0.129-0.054-0.267-0.105-0.41-0.152c-0.145-0.047-0.279-0.069-0.404-0.069h-0.07
		c-0.086-0.07-0.186-0.123-0.299-0.158s-0.229-0.065-0.346-0.095c-0.117-0.027-0.23-0.057-0.34-0.088
		c-0.11-0.03-0.203-0.073-0.281-0.129c-0.078-0.055-0.168-0.11-0.27-0.17c-0.103-0.059-0.207-0.084-0.316-0.076
		c-0.148-0.086-0.303-0.159-0.463-0.223c-0.16-0.062-0.322-0.121-0.486-0.176l-0.48-0.176c-0.156-0.062-0.312-0.137-0.469-0.223
		c-0.023,0.008-0.051,0.008-0.082,0c-0.031-0.009-0.059-0.013-0.082-0.013c-0.047,0-0.074,0.017-0.082,0.047
		c-0.055-0.055-0.115-0.102-0.182-0.141s-0.131-0.086-0.193-0.142c-0.031,0.008-0.061,0.015-0.088,0.019s-0.061,0.006-0.1,0.006
		c-0.07,0-0.139-0.008-0.205-0.022c-0.066-0.016-0.131-0.035-0.193-0.06c-0.07,0.156-0.117,0.332-0.141,0.527
		c-0.023,0.194-0.041,0.396-0.053,0.604s-0.025,0.414-0.041,0.621c-0.017,0.207-0.051,0.396-0.105,0.568
		c0.016,0.062,0.023,0.125,0.023,0.188v0.198c0,0.133,0.02,0.238,0.059,0.315c-0.016,0.07-0.029,0.138-0.041,0.199
		c-0.012,0.062-0.025,0.125-0.041,0.188c0.008,0.086,0.014,0.166,0.018,0.239c0.004,0.074,0.006,0.154,0.006,0.24v0.199
		c0,0.07-0.008,0.141-0.022,0.211c-0.078,0.047-0.155,0.092-0.233,0.135s-0.156,0.097-0.234,0.158
		c-0.055-0.102-0.148-0.16-0.281-0.176c-0.031,0.039-0.053,0.092-0.064,0.158c-0.01,0.066-0.049,0.1-0.11,0.1
		c-0.108-0.086-0.199-0.156-0.271-0.211c-0.07-0.055-0.147-0.137-0.233-0.246c-0.009-0.016-0.013-0.035-0.013-0.059
		c0-0.039,0.008-0.074,0.023-0.105s0.023-0.062,0.023-0.094c0-0.094-0.012-0.176-0.035-0.246c-0.016-0.102-0.027-0.201-0.035-0.299
		s-0.012-0.193-0.012-0.287c0-0.133,0.01-0.262,0.029-0.387c0.019-0.125,0.057-0.254,0.11-0.387
		c0.086-0.228,0.146-0.465,0.183-0.715c0.035-0.25,0.061-0.502,0.075-0.756c0.015-0.255,0.025-0.511,0.029-0.769
		c0.004-0.259,0.019-0.504,0.041-0.738c-0.056-0.125-0.119-0.225-0.192-0.299c-0.074-0.074-0.111-0.192-0.111-0.356
		c0-0.148,0.047-0.265,0.141-0.347s0.176-0.182,0.246-0.299c-0.016-0.047-0.004-0.078,0.035-0.094l0.141-1.23
		c0.008-0.086,0.021-0.18,0.041-0.281s0.033-0.195,0.041-0.281c0.016-0.18,0.023-0.355,0.023-0.527s0.008-0.344,0.022-0.516
		c0.039-0.383,0.076-0.762,0.111-1.137c0.034-0.375,0.053-0.75,0.053-1.125c0-0.18-0.006-0.359-0.019-0.539
		c-0.012-0.18-0.036-0.359-0.075-0.539c-0.134,0.04-0.28,0.081-0.44,0.124s-0.295,0.115-0.404,0.217h-0.094
		c-0.203,0-0.393,0.039-0.568,0.117c-0.174,0.078-0.354,0.152-0.533,0.222c-0.078,0.039-0.156,0.064-0.234,0.076
		c-0.078,0.012-0.16,0.029-0.246,0.053c-0.039,0.008-0.082,0.031-0.129,0.07s-0.09,0.066-0.129,0.082l-0.199,0.047
		c-0.055,0.016-0.078,0.051-0.069,0.105c0.008,0.054-0.013,0.09-0.06,0.105c-0.039,0.04-0.094,0.058-0.164,0.054
		s-0.125-0.006-0.164-0.006h-0.047c-0.195,0.141-0.385,0.26-0.568,0.357c-0.182,0.097-0.399,0.162-0.649,0.193L32.912,7
		c-0.086,0.055-0.184,0.082-0.293,0.082c-0.086,0-0.156-0.016-0.211-0.047c-0.062-0.094-0.111-0.199-0.146-0.316
		C32.227,6.602,32.166,6.5,32.08,6.414c0.039-0.039,0.064-0.092,0.076-0.158c0.012-0.066,0.025-0.127,0.041-0.182
		c0.234-0.102,0.471-0.199,0.709-0.293c0.238-0.094,0.467-0.207,0.686-0.34c0.023,0.008,0.059,0.012,0.105,0.012
		c0.078,0,0.148-0.012,0.211-0.035s0.125-0.051,0.188-0.082c0.063-0.031,0.125-0.059,0.188-0.082s0.137-0.031,0.223-0.023
		c0.267-0.148,0.548-0.27,0.845-0.363c0.297-0.093,0.578-0.223,0.844-0.387c0.039,0,0.072,0.008,0.1,0.023
		c0.028,0.015,0.057,0.023,0.088,0.023s0.051-0.004,0.059-0.012c0.047-0.062,0.109-0.107,0.188-0.135
		c0.079-0.028,0.158-0.051,0.24-0.07s0.159-0.047,0.233-0.082s0.123-0.092,0.146-0.17c0.039,0.031,0.098,0.047,0.176,0.047
		c0.133,0,0.256-0.027,0.369-0.082s0.236-0.082,0.369-0.082c0.031,0,0.061,0.006,0.088,0.018c0.027,0.012,0.057,0.018,0.088,0.018
		c0.062,0,0.096-0.02,0.1-0.059s0.025-0.074,0.064-0.105c0.477-0.086,0.951-0.164,1.424-0.234c0.473-0.07,0.951-0.105,1.436-0.105
		c0.07-0.047,0.148-0.07,0.234-0.07s0.164,0.023,0.234,0.07c0.133-0.016,0.266-0.027,0.398-0.035
		c0.131-0.008,0.266-0.012,0.397-0.012c0.306,0,0.617,0.021,0.938,0.059c0.32,0.039,0.639,0.1,0.955,0.182
		c0.315,0.082,0.619,0.191,0.908,0.328c0.288,0.137,0.559,0.299,0.809,0.486c0.023,0.07,0.055,0.141,0.094,0.211
		c0.039,0.07,0.09,0.125,0.152,0.164c0,0.016-0.002,0.027-0.006,0.035c-0.004,0.008-0.006,0.02-0.006,0.035
		c0,0.086,0.024,0.168,0.075,0.246c0.052,0.078,0.076,0.172,0.076,0.281c0,0.109-0.019,0.219-0.054,0.328
		C46.536,5.891,46.521,6,46.529,6.109c-0.086,0.125-0.158,0.238-0.217,0.34c-0.06,0.102-0.097,0.23-0.111,0.387
		c-0.141,0.141-0.266,0.295-0.375,0.463s-0.221,0.332-0.334,0.492s-0.24,0.307-0.381,0.439s-0.31,0.238-0.504,0.316
		C44.6,8.624,44.568,8.71,44.514,8.804h-0.246c-0.023,0.062-0.062,0.109-0.117,0.141l-0.164,0.094
		c-0.055,0.031-0.1,0.07-0.135,0.117c-0.035,0.047-0.054,0.113-0.054,0.199c-0.016-0.008-0.034-0.012-0.06-0.012
		c-0.077,0-0.17,0.039-0.274,0.117s-0.188,0.141-0.252,0.188c-0.133,0.094-0.269,0.18-0.403,0.258
		c-0.137,0.078-0.257,0.188-0.357,0.328c-0.312,0.133-0.609,0.287-0.891,0.463c-0.283,0.176-0.586,0.313-0.914,0.416
		c-0.125,0.133-0.271,0.236-0.439,0.311c-0.168,0.075-0.33,0.154-0.486,0.24v0.035c0,0.062,0.023,0.123,0.07,0.182
		s0.102,0.109,0.164,0.152s0.131,0.072,0.205,0.088s0.139,0.016,0.193,0c0.155,0.141,0.336,0.254,0.539,0.34
		s0.414,0.164,0.633,0.234s0.434,0.145,0.645,0.223s0.406,0.176,0.586,0.293h0.281c0.18,0.156,0.393,0.273,0.639,0.352
		c0.246,0.08,0.482,0.148,0.709,0.211c0.094,0.086,0.213,0.15,0.357,0.193s0.283,0.064,0.416,0.064h0.07
		c0.03,0,0.059-0.004,0.082-0.012v0.022c0,0.039,0.012,0.063,0.035,0.076c0.022,0.012,0.049,0.021,0.075,0.022
		c0.027,0.004,0.056,0.012,0.082,0.023c0.026,0.011,0.049,0.029,0.063,0.053h0.117c0.164,0,0.32,0.033,0.469,0.1
		c0.15,0.067,0.306,0.101,0.47,0.101c0.069,0,0.125-0.008,0.164-0.022c0.047,0.016,0.082,0.047,0.104,0.094
		c0.023,0.047,0.055,0.086,0.094,0.117c0.056-0.008,0.105-0.015,0.152-0.019s0.094-0.006,0.141-0.006c0.173,0,0.332,0.021,0.48,0.06
		s0.301,0.098,0.457,0.176c0.25-0.109,0.496-0.199,0.738-0.271s0.5-0.104,0.773-0.104v0.022c0,0.095,0.024,0.183,0.076,0.265
		C49.854,14.811,49.9,14.895,49.939,14.98z M45.451,5.629c0-0.094-0.018-0.168-0.053-0.223c-0.035-0.055-0.08-0.104-0.135-0.146
		c-0.056-0.042-0.111-0.084-0.171-0.123c-0.059-0.039-0.11-0.09-0.157-0.152c-0.203-0.062-0.402-0.133-0.599-0.211
		s-0.396-0.145-0.599-0.199c-0.102-0.023-0.202-0.045-0.305-0.064c-0.102-0.019-0.201-0.031-0.303-0.031h-0.258
		c-0.047-0.008-0.096-0.018-0.146-0.029c-0.05-0.011-0.1-0.021-0.146-0.029c-0.108-0.016-0.218-0.027-0.322-0.035
		c-0.104-0.008-0.213-0.012-0.321-0.012c-0.203,0-0.406,0.008-0.609,0.023l-0.609,0.047c-0.086,0.008-0.176,0.012-0.27,0.012
		s-0.18,0.008-0.258,0.023c-0.039,0.008-0.094,0.025-0.164,0.053c-0.07,0.028-0.146,0.055-0.223,0.082
		c-0.078,0.027-0.154,0.057-0.229,0.088c-0.075,0.031-0.14,0.055-0.193,0.07c0.009,0.055,0.013,0.109,0.013,0.164V5.09
		c0,0.117-0.004,0.234-0.013,0.352c-0.008,0.118-0.022,0.234-0.047,0.352c-0.008,0.047-0.021,0.094-0.035,0.141
		s-0.026,0.094-0.034,0.141c-0.017,0.07-0.023,0.148-0.023,0.234v0.223c-0.016,0.18-0.027,0.355-0.035,0.527
		s-0.02,0.348-0.035,0.527c-0.047,0.516-0.096,1.027-0.146,1.535c-0.049,0.508-0.084,1.02-0.1,1.535
		c0.258-0.055,0.504-0.137,0.738-0.246c0.234-0.109,0.465-0.229,0.691-0.357c0.226-0.128,0.453-0.256,0.68-0.381
		s0.465-0.23,0.715-0.316c0.062-0.086,0.139-0.156,0.229-0.211s0.166-0.125,0.229-0.211c0.078,0,0.138-0.018,0.176-0.053
		c0.039-0.035,0.091-0.061,0.152-0.076c0.375-0.328,0.758-0.637,1.147-0.926c0.391-0.289,0.767-0.598,1.125-0.926
		c0.031-0.109,0.084-0.217,0.158-0.322s0.146-0.213,0.217-0.322c0.071-0.109,0.133-0.219,0.188-0.328
		C45.427,5.873,45.451,5.754,45.451,5.629z"/>
</g>
<g>
	<path fill="#ED6A5A" d="M17.574,21.072L1.361,11.777V10.21l16.213-9.202v2.307L3.736,11.017l13.837,7.703L17.574,21.072
		L17.574,21.072z"/>
	<path fill="#ED6A5A" d="M51.719,18.72l13.838-7.703L51.719,3.314V1.008l16.213,9.202v1.567l-16.213,9.295V18.72z"/>
</g>
</svg>
