<svg xmlns="http://www.w3.org/2000/svg" xmlns:xlink="http://www.w3.org/1999/xlink" width="695" height="395" viewBox="0 0 695 395">
  <defs>
    <clipPath id="clip-Artboard_2">
      <rect width="695" height="395"/>
    </clipPath>
  </defs>
  <g id="Artboard_2" data-name="Artboard – 2" clip-path="url(#clip-Artboard_2)">
    <rect width="695" height="395" fill="#fff"/>
    <g id="undraw_online_transactions_02ka" transform="translate(-214 -101)">
      <g id="Group_4" data-name="Group 4" transform="translate(-187 -127)">
        <rect id="Rectangle_33" data-name="Rectangle 33" width="343.72" height="190.17" transform="translate(422.992 340.386)" fill="#38d39f"/>
        <rect id="Rectangle_61" data-name="Rectangle 61" width="343.72" height="190.17" transform="translate(846.767 604.33) rotate(-90)" fill="#38d39f"/>
        <path id="Path_51" data-name="Path 51" d="M754.886,453.218H416.646c-2.268,0-4.107,1.521-4.11,3.395V645.5c0,1.875,1.84,3.395,4.11,3.395h338.24c2.27,0,4.11-1.52,4.11-3.395V456.612c0-1.874-1.841-3.392-4.11-3.395Zm1.37,192.284a1.039,1.039,0,0,1-.4.8,1.525,1.525,0,0,1-.97.33H416.646a1.525,1.525,0,0,1-.97-.33,1.039,1.039,0,0,1-.4-.8V456.612a1.27,1.27,0,0,1,1.37-1.132h338.24a1.27,1.27,0,0,1,1.37,1.132Z" transform="translate(30.996 -140.222)" fill="#3f3d56"/>
        <path id="Path_64" data-name="Path 64" d="M754.886,453.218H416.646c-2.268,0-4.107,1.521-4.11,3.395V645.5c0,1.875,1.84,3.395,4.11,3.395h338.24c2.27,0,4.11-1.52,4.11-3.395V456.612c0-1.874-1.841-3.392-4.11-3.395Zm1.37,192.284a1.039,1.039,0,0,1-.4.8,1.525,1.525,0,0,1-.97.33H416.646a1.525,1.525,0,0,1-.97-.33,1.039,1.039,0,0,1-.4-.8V456.612a1.27,1.27,0,0,1,1.37-1.132h338.24a1.27,1.27,0,0,1,1.37,1.132Z" transform="translate(421.705 1000.601) rotate(-90)" fill="#3f3d56"/>
        <rect id="Rectangle_38" data-name="Rectangle 38" width="71.209" height="30.127" rx="2" transform="translate(465.444 329.431)" fill="#3f3d56"/>
        <rect id="Rectangle_70" data-name="Rectangle 70" width="71.209" height="30.127" rx="2" transform="translate(884.444 253.431)" fill="#3f3d56"/>
        <path id="Path_53" data-name="Path 53" d="M475.53,484.716c0,5.294-2.452,9.586-5.478,9.586s-5.478-4.292-5.478-9.586,5.478-9.586,5.478-9.586S475.53,479.422,475.53,484.716Z" transform="translate(30.996 -140.222)" fill="#38d39f"/>
        <path id="Path_65" data-name="Path 65" d="M475.53,484.716c0,5.294-2.452,9.586-5.478,9.586s-5.478-4.292-5.478-9.586,5.478-9.586,5.478-9.586S475.53,479.422,475.53,484.716Z" transform="translate(449.996 -216.222)" fill="#38d39f"/>
        <g id="Group_3" data-name="Group 3" transform="translate(97 45)">
          <rect id="Rectangle_59" data-name="Rectangle 59" width="95.241" height="4.998" rx="2" transform="translate(558.821 363.754)" fill="#3f3d56"/>
          <rect id="Rectangle_60" data-name="Rectangle 60" width="95.241" height="4.998" rx="2" transform="translate(558.821 379.582)" fill="#3f3d56"/>
          <path id="Path_63" data-name="Path 63" d="M2,0H73.241a2,2,0,0,1,2,2V3a2,2,0,0,1-2,2H2A2,2,0,0,1,0,3V2A2,2,0,0,1,2,0Z" transform="translate(558.821 395.239)" fill="#3f3d56"/>
        </g>
        <g id="Group_5" data-name="Group 5" transform="translate(967.506 363.754)">
          <rect id="Rectangle_59-2" data-name="Rectangle 59" width="95.241" height="4.998" rx="2" fill="#3f3d56"/>
          <rect id="Rectangle_60-2" data-name="Rectangle 60" width="95.241" height="4.998" rx="2" transform="translate(0 15.828)" fill="#3f3d56"/>
          <rect id="Rectangle_67" data-name="Rectangle 67" width="95.241" height="4.998" rx="2" transform="translate(-0.686 62.657)" fill="#3f3d56"/>
          <rect id="Rectangle_65" data-name="Rectangle 65" width="95.241" height="4.998" rx="2" transform="translate(-0.686 31.485)" fill="#3f3d56"/>
          <rect id="Rectangle_68" data-name="Rectangle 68" width="95.241" height="4.998" rx="2" transform="translate(-0.686 78.485)" fill="#3f3d56"/>
          <rect id="Rectangle_66" data-name="Rectangle 66" width="95.241" height="4.998" rx="2" transform="translate(-0.686 47.313)" fill="#3f3d56"/>
          <rect id="Rectangle_69" data-name="Rectangle 69" width="53.241" height="4.998" rx="2" transform="translate(-0.686 94.313)" fill="#3f3d56"/>
        </g>
        <g id="Group_1" data-name="Group 1" transform="translate(97 45)">
          <rect id="Rectangle_41" data-name="Rectangle 41" width="95.241" height="4.998" rx="2" transform="translate(340.821 363.754)" fill="#3f3d56"/>
          <rect id="Rectangle_42" data-name="Rectangle 42" width="95.241" height="4.998" rx="2" transform="translate(340.821 379.582)" fill="#3f3d56"/>
          <rect id="Rectangle_43" data-name="Rectangle 43" width="95.241" height="4.998" rx="2" transform="translate(340.821 395.41)" fill="#3f3d56"/>
          <rect id="Rectangle_44" data-name="Rectangle 44" width="95.241" height="4.998" rx="2" transform="translate(340.821 411.239)" fill="#3f3d56"/>
          <rect id="Rectangle_45" data-name="Rectangle 45" width="88.241" height="4.998" rx="2" transform="translate(340.821 427.067)" fill="#3f3d56"/>
        </g>
        <g id="Group_2" data-name="Group 2" transform="translate(97 45)">
          <rect id="Rectangle_54" data-name="Rectangle 54" width="95.241" height="4.998" rx="2" transform="translate(451.821 363.754)" fill="#3f3d56"/>
          <rect id="Rectangle_55" data-name="Rectangle 55" width="95.241" height="4.998" rx="2" transform="translate(451.821 379.582)" fill="#3f3d56"/>
          <rect id="Rectangle_56" data-name="Rectangle 56" width="95.241" height="4.998" rx="2" transform="translate(451.821 395.41)" fill="#3f3d56"/>
          <rect id="Rectangle_57" data-name="Rectangle 57" width="95.241" height="4.998" rx="2" transform="translate(451.821 411.239)" fill="#3f3d56"/>
          <rect id="Rectangle_58" data-name="Rectangle 58" width="43.241" height="4.998" rx="2" transform="translate(451.821 427.067)" fill="#3f3d56"/>
        </g>
        <g id="Group_6" data-name="Group 6" transform="translate(860.821 363.754)">
          <rect id="Rectangle_54-2" data-name="Rectangle 54" width="95.241" height="4.998" rx="2" fill="#3f3d56"/>
          <rect id="Rectangle_55-2" data-name="Rectangle 55" width="95.241" height="4.998" rx="2" transform="translate(0 15.828)" fill="#3f3d56"/>
          <rect id="Rectangle_56-2" data-name="Rectangle 56" width="95.241" height="4.998" rx="2" transform="translate(0 31.657)" fill="#3f3d56"/>
          <rect id="Rectangle_64" data-name="Rectangle 64" width="95.241" height="4.998" rx="2" transform="translate(0 78.657)" fill="#3f3d56"/>
          <rect id="Rectangle_57-2" data-name="Rectangle 57" width="95.241" height="4.998" rx="2" transform="translate(0 47.485)" fill="#3f3d56"/>
          <rect id="Rectangle_63" data-name="Rectangle 63" width="95.241" height="4.998" rx="2" transform="translate(0 94.485)" fill="#3f3d56"/>
          <rect id="Rectangle_58-2" data-name="Rectangle 58" width="95.241" height="4.998" rx="2" transform="translate(0 63.313)" fill="#3f3d56"/>
          <rect id="Rectangle_62" data-name="Rectangle 62" width="72.241" height="4.998" rx="2" transform="translate(0 110.313)" fill="#3f3d56"/>
        </g>
      </g>
    </g>
    <text id="Multi_Column" data-name="Multi Column" transform="translate(36 63)" fill="#262626" font-size="50" font-family="HelveticaNeue-Bold, Helvetica Neue" font-weight="700" letter-spacing="-0.01em"><tspan x="0" y="0">Multi Column</tspan></text>
  </g>
</svg>
